ISO-10303-21;
HEADER;
/* Generated by software containing ST-Developer
 * from STEP Tools, Inc. (www.steptools.com) 
 */

FILE_DESCRIPTION(
/* description */ ('Open CASCADE Model'),
/* implementation_level */ '2;1');

FILE_NAME(
/* name */ 'cabineo_with_perimeter_cap.step',
/* time_stamp */ '2026-02-25T14:09:28+01:00',
/* author */ (''),
/* organization */ (''),
/* preprocessor_version */ 'ST-DEVELOPER v20.1',
/* originating_system */ 'Autodesk Translation Framework v14.24.0.0',
/* authorisation */ '');

FILE_SCHEMA (('AUTOMOTIVE_DESIGN { 1 0 10303 214 3 1 1 }'));
ENDSEC;

DATA;
#10=MECHANICAL_DESIGN_GEOMETRIC_PRESENTATION_REPRESENTATION('',(#13),#607);
#11=SHAPE_REPRESENTATION_RELATIONSHIP('SRR','None',#614,#12);
#12=ADVANCED_BREP_SHAPE_REPRESENTATION('',(#14),#606);
#13=STYLED_ITEM('',(#623),#14);
#14=MANIFOLD_SOLID_BREP('Body1',#347);
#15=FACE_BOUND('',#107,.T.);
#16=LINE('',#510,#46);
#17=LINE('',#515,#47);
#18=LINE('',#517,#48);
#19=LINE('',#519,#49);
#20=LINE('',#521,#50);
#21=LINE('',#523,#51);
#22=LINE('',#525,#52);
#23=LINE('',#527,#53);
#24=LINE('',#528,#54);
#25=LINE('',#533,#55);
#26=LINE('',#537,#56);
#27=LINE('',#538,#57);
#28=LINE('',#541,#58);
#29=LINE('',#545,#59);
#30=LINE('',#558,#60);
#31=LINE('',#569,#61);
#32=LINE('',#572,#62);
#33=LINE('',#574,#63);
#34=LINE('',#577,#64);
#35=LINE('',#579,#65);
#36=LINE('',#582,#66);
#37=LINE('',#583,#67);
#38=LINE('',#586,#68);
#39=LINE('',#588,#69);
#40=LINE('',#591,#70);
#41=LINE('',#593,#71);
#42=LINE('',#595,#72);
#43=LINE('',#597,#73);
#44=LINE('',#600,#74);
#45=LINE('',#601,#75);
#46=VECTOR('',#406,2.5);
#47=VECTOR('',#411,1.);
#48=VECTOR('',#412,1.);
#49=VECTOR('',#413,1.);
#50=VECTOR('',#414,1.);
#51=VECTOR('',#415,1.);
#52=VECTOR('',#416,1.);
#53=VECTOR('',#417,1.);
#54=VECTOR('',#418,1.);
#55=VECTOR('',#423,1.);
#56=VECTOR('',#426,1.);
#57=VECTOR('',#427,1.);
#58=VECTOR('',#430,1.);
#59=VECTOR('',#433,1.);
#60=VECTOR('',#448,1.);
#61=VECTOR('',#463,1.);
#62=VECTOR('',#466,1.);
#63=VECTOR('',#467,1.);
#64=VECTOR('',#470,1.);
#65=VECTOR('',#473,1.);
#66=VECTOR('',#476,1.);
#67=VECTOR('',#477,1.);
#68=VECTOR('',#480,1.);
#69=VECTOR('',#481,1.);
#70=VECTOR('',#484,1.);
#71=VECTOR('',#487,1.);
#72=VECTOR('',#490,1.);
#73=VECTOR('',#493,1.);
#74=VECTOR('',#498,1.);
#75=VECTOR('',#499,1.);
#76=CYLINDRICAL_SURFACE('',#363,2.5);
#77=CYLINDRICAL_SURFACE('',#366,0.3);
#78=CYLINDRICAL_SURFACE('',#377,7.5);
#79=CYLINDRICAL_SURFACE('',#384,7.5);
#80=CYLINDRICAL_SURFACE('',#385,0.3);
#81=CYLINDRICAL_SURFACE('',#389,8.25);
#82=CYLINDRICAL_SURFACE('',#392,7.5);
#83=CYLINDRICAL_SURFACE('',#393,7.5);
#84=CYLINDRICAL_SURFACE('',#394,7.5);
#85=FACE_OUTER_BOUND('',#104,.T.);
#86=FACE_OUTER_BOUND('',#105,.T.);
#87=FACE_OUTER_BOUND('',#106,.T.);
#88=FACE_OUTER_BOUND('',#108,.T.);
#89=FACE_OUTER_BOUND('',#109,.T.);
#90=FACE_OUTER_BOUND('',#110,.T.);
#91=FACE_OUTER_BOUND('',#111,.T.);
#92=FACE_OUTER_BOUND('',#112,.T.);
#93=FACE_OUTER_BOUND('',#113,.T.);
#94=FACE_OUTER_BOUND('',#114,.T.);
#95=FACE_OUTER_BOUND('',#115,.T.);
#96=FACE_OUTER_BOUND('',#116,.T.);
#97=FACE_OUTER_BOUND('',#117,.T.);
#98=FACE_OUTER_BOUND('',#118,.T.);
#99=FACE_OUTER_BOUND('',#119,.T.);
#100=FACE_OUTER_BOUND('',#120,.T.);
#101=FACE_OUTER_BOUND('',#121,.T.);
#102=FACE_OUTER_BOUND('',#122,.T.);
#103=FACE_OUTER_BOUND('',#123,.T.);
#104=EDGE_LOOP('',(#222));
#105=EDGE_LOOP('',(#223,#224,#225,#226));
#106=EDGE_LOOP('',(#227,#228,#229,#230,#231,#232,#233,#234));
#107=EDGE_LOOP('',(#235));
#108=EDGE_LOOP('',(#236,#237,#238,#239,#240,#241));
#109=EDGE_LOOP('',(#242,#243,#244,#245,#246,#247,#248,#249,#250,#251,#252,
#253));
#110=EDGE_LOOP('',(#254,#255,#256,#257));
#111=EDGE_LOOP('',(#258,#259,#260,#261,#262,#263));
#112=EDGE_LOOP('',(#264,#265,#266,#267));
#113=EDGE_LOOP('',(#268,#269,#270,#271,#272,#273));
#114=EDGE_LOOP('',(#274,#275,#276,#277));
#115=EDGE_LOOP('',(#278,#279,#280,#281));
#116=EDGE_LOOP('',(#282,#283,#284,#285,#286,#287));
#117=EDGE_LOOP('',(#288,#289,#290,#291));
#118=EDGE_LOOP('',(#292,#293,#294,#295));
#119=EDGE_LOOP('',(#296,#297,#298,#299));
#120=EDGE_LOOP('',(#300,#301,#302,#303));
#121=EDGE_LOOP('',(#304,#305,#306,#307,#308,#309));
#122=EDGE_LOOP('',(#310,#311,#312,#313));
#123=EDGE_LOOP('',(#314,#315,#316,#317));
#124=CIRCLE('',#362,2.5);
#125=CIRCLE('',#364,2.5);
#126=CIRCLE('',#367,0.3);
#127=CIRCLE('',#368,0.3);
#128=CIRCLE('',#370,8.25);
#129=CIRCLE('',#371,0.3);
#130=CIRCLE('',#372,7.5);
#131=CIRCLE('',#373,7.5);
#132=CIRCLE('',#374,7.5);
#133=CIRCLE('',#375,7.5);
#134=CIRCLE('',#376,7.5);
#135=CIRCLE('',#378,7.5);
#136=CIRCLE('',#380,7.5);
#137=CIRCLE('',#381,7.5);
#138=CIRCLE('',#382,7.5);
#139=CIRCLE('',#383,7.5);
#140=CIRCLE('',#386,0.3);
#141=CIRCLE('',#390,8.25);
#142=VERTEX_POINT('',#506);
#143=VERTEX_POINT('',#509);
#144=VERTEX_POINT('',#513);
#145=VERTEX_POINT('',#514);
#146=VERTEX_POINT('',#516);
#147=VERTEX_POINT('',#518);
#148=VERTEX_POINT('',#520);
#149=VERTEX_POINT('',#522);
#150=VERTEX_POINT('',#524);
#151=VERTEX_POINT('',#526);
#152=VERTEX_POINT('',#530);
#153=VERTEX_POINT('',#532);
#154=VERTEX_POINT('',#534);
#155=VERTEX_POINT('',#536);
#156=VERTEX_POINT('',#540);
#157=VERTEX_POINT('',#542);
#158=VERTEX_POINT('',#544);
#159=VERTEX_POINT('',#547);
#160=VERTEX_POINT('',#549);
#161=VERTEX_POINT('',#551);
#162=VERTEX_POINT('',#553);
#163=VERTEX_POINT('',#557);
#164=VERTEX_POINT('',#561);
#165=VERTEX_POINT('',#562);
#166=VERTEX_POINT('',#564);
#167=VERTEX_POINT('',#571);
#168=VERTEX_POINT('',#573);
#169=VERTEX_POINT('',#575);
#170=VERTEX_POINT('',#581);
#171=VERTEX_POINT('',#585);
#172=VERTEX_POINT('',#587);
#173=VERTEX_POINT('',#589);
#174=EDGE_CURVE('',#142,#142,#124,.T.);
#175=EDGE_CURVE('',#142,#143,#16,.T.);
#176=EDGE_CURVE('',#143,#143,#125,.T.);
#177=EDGE_CURVE('',#144,#145,#17,.T.);
#178=EDGE_CURVE('',#146,#144,#18,.T.);
#179=EDGE_CURVE('',#146,#147,#19,.T.);
#180=EDGE_CURVE('',#148,#147,#20,.T.);
#181=EDGE_CURVE('',#149,#148,#21,.T.);
#182=EDGE_CURVE('',#150,#149,#22,.T.);
#183=EDGE_CURVE('',#151,#150,#23,.T.);
#184=EDGE_CURVE('',#145,#151,#24,.T.);
#185=EDGE_CURVE('',#152,#144,#126,.T.);
#186=EDGE_CURVE('',#153,#145,#25,.T.);
#187=EDGE_CURVE('',#153,#154,#127,.T.);
#188=EDGE_CURVE('',#154,#155,#26,.T.);
#189=EDGE_CURVE('',#155,#152,#27,.T.);
#190=EDGE_CURVE('',#152,#156,#28,.T.);
#191=EDGE_CURVE('',#156,#157,#128,.T.);
#192=EDGE_CURVE('',#157,#158,#29,.T.);
#193=EDGE_CURVE('',#150,#158,#129,.T.);
#194=EDGE_CURVE('',#159,#149,#130,.T.);
#195=EDGE_CURVE('',#160,#159,#131,.T.);
#196=EDGE_CURVE('',#161,#160,#132,.T.);
#197=EDGE_CURVE('',#162,#161,#133,.T.);
#198=EDGE_CURVE('',#146,#162,#134,.T.);
#199=EDGE_CURVE('',#162,#163,#30,.T.);
#200=EDGE_CURVE('',#147,#163,#135,.T.);
#201=EDGE_CURVE('',#164,#165,#136,.T.);
#202=EDGE_CURVE('',#165,#166,#137,.T.);
#203=EDGE_CURVE('',#166,#148,#138,.T.);
#204=EDGE_CURVE('',#163,#164,#139,.T.);
#205=EDGE_CURVE('',#159,#166,#31,.T.);
#206=EDGE_CURVE('',#158,#167,#32,.T.);
#207=EDGE_CURVE('',#167,#168,#33,.T.);
#208=EDGE_CURVE('',#168,#169,#140,.T.);
#209=EDGE_CURVE('',#151,#169,#34,.T.);
#210=EDGE_CURVE('',#153,#169,#35,.T.);
#211=EDGE_CURVE('',#170,#155,#36,.T.);
#212=EDGE_CURVE('',#170,#156,#37,.T.);
#213=EDGE_CURVE('',#171,#157,#38,.T.);
#214=EDGE_CURVE('',#172,#170,#39,.T.);
#215=EDGE_CURVE('',#172,#173,#141,.T.);
#216=EDGE_CURVE('',#171,#173,#40,.T.);
#217=EDGE_CURVE('',#167,#171,#41,.T.);
#218=EDGE_CURVE('',#165,#160,#42,.T.);
#219=EDGE_CURVE('',#161,#164,#43,.T.);
#220=EDGE_CURVE('',#168,#173,#44,.T.);
#221=EDGE_CURVE('',#172,#154,#45,.T.);
#222=ORIENTED_EDGE('',*,*,#174,.T.);
#223=ORIENTED_EDGE('',*,*,#174,.F.);
#224=ORIENTED_EDGE('',*,*,#175,.T.);
#225=ORIENTED_EDGE('',*,*,#176,.F.);
#226=ORIENTED_EDGE('',*,*,#175,.F.);
#227=ORIENTED_EDGE('',*,*,#177,.F.);
#228=ORIENTED_EDGE('',*,*,#178,.F.);
#229=ORIENTED_EDGE('',*,*,#179,.T.);
#230=ORIENTED_EDGE('',*,*,#180,.F.);
#231=ORIENTED_EDGE('',*,*,#181,.F.);
#232=ORIENTED_EDGE('',*,*,#182,.F.);
#233=ORIENTED_EDGE('',*,*,#183,.F.);
#234=ORIENTED_EDGE('',*,*,#184,.F.);
#235=ORIENTED_EDGE('',*,*,#176,.T.);
#236=ORIENTED_EDGE('',*,*,#185,.T.);
#237=ORIENTED_EDGE('',*,*,#177,.T.);
#238=ORIENTED_EDGE('',*,*,#186,.F.);
#239=ORIENTED_EDGE('',*,*,#187,.T.);
#240=ORIENTED_EDGE('',*,*,#188,.T.);
#241=ORIENTED_EDGE('',*,*,#189,.T.);
#242=ORIENTED_EDGE('',*,*,#185,.F.);
#243=ORIENTED_EDGE('',*,*,#190,.T.);
#244=ORIENTED_EDGE('',*,*,#191,.T.);
#245=ORIENTED_EDGE('',*,*,#192,.T.);
#246=ORIENTED_EDGE('',*,*,#193,.F.);
#247=ORIENTED_EDGE('',*,*,#182,.T.);
#248=ORIENTED_EDGE('',*,*,#194,.F.);
#249=ORIENTED_EDGE('',*,*,#195,.F.);
#250=ORIENTED_EDGE('',*,*,#196,.F.);
#251=ORIENTED_EDGE('',*,*,#197,.F.);
#252=ORIENTED_EDGE('',*,*,#198,.F.);
#253=ORIENTED_EDGE('',*,*,#178,.T.);
#254=ORIENTED_EDGE('',*,*,#198,.T.);
#255=ORIENTED_EDGE('',*,*,#199,.T.);
#256=ORIENTED_EDGE('',*,*,#200,.F.);
#257=ORIENTED_EDGE('',*,*,#179,.F.);
#258=ORIENTED_EDGE('',*,*,#201,.T.);
#259=ORIENTED_EDGE('',*,*,#202,.T.);
#260=ORIENTED_EDGE('',*,*,#203,.T.);
#261=ORIENTED_EDGE('',*,*,#180,.T.);
#262=ORIENTED_EDGE('',*,*,#200,.T.);
#263=ORIENTED_EDGE('',*,*,#204,.T.);
#264=ORIENTED_EDGE('',*,*,#194,.T.);
#265=ORIENTED_EDGE('',*,*,#181,.T.);
#266=ORIENTED_EDGE('',*,*,#203,.F.);
#267=ORIENTED_EDGE('',*,*,#205,.F.);
#268=ORIENTED_EDGE('',*,*,#193,.T.);
#269=ORIENTED_EDGE('',*,*,#206,.T.);
#270=ORIENTED_EDGE('',*,*,#207,.T.);
#271=ORIENTED_EDGE('',*,*,#208,.T.);
#272=ORIENTED_EDGE('',*,*,#209,.F.);
#273=ORIENTED_EDGE('',*,*,#183,.T.);
#274=ORIENTED_EDGE('',*,*,#186,.T.);
#275=ORIENTED_EDGE('',*,*,#184,.T.);
#276=ORIENTED_EDGE('',*,*,#209,.T.);
#277=ORIENTED_EDGE('',*,*,#210,.F.);
#278=ORIENTED_EDGE('',*,*,#189,.F.);
#279=ORIENTED_EDGE('',*,*,#211,.F.);
#280=ORIENTED_EDGE('',*,*,#212,.T.);
#281=ORIENTED_EDGE('',*,*,#190,.F.);
#282=ORIENTED_EDGE('',*,*,#213,.T.);
#283=ORIENTED_EDGE('',*,*,#191,.F.);
#284=ORIENTED_EDGE('',*,*,#212,.F.);
#285=ORIENTED_EDGE('',*,*,#214,.F.);
#286=ORIENTED_EDGE('',*,*,#215,.T.);
#287=ORIENTED_EDGE('',*,*,#216,.F.);
#288=ORIENTED_EDGE('',*,*,#217,.F.);
#289=ORIENTED_EDGE('',*,*,#206,.F.);
#290=ORIENTED_EDGE('',*,*,#192,.F.);
#291=ORIENTED_EDGE('',*,*,#213,.F.);
#292=ORIENTED_EDGE('',*,*,#195,.T.);
#293=ORIENTED_EDGE('',*,*,#205,.T.);
#294=ORIENTED_EDGE('',*,*,#202,.F.);
#295=ORIENTED_EDGE('',*,*,#218,.T.);
#296=ORIENTED_EDGE('',*,*,#196,.T.);
#297=ORIENTED_EDGE('',*,*,#218,.F.);
#298=ORIENTED_EDGE('',*,*,#201,.F.);
#299=ORIENTED_EDGE('',*,*,#219,.F.);
#300=ORIENTED_EDGE('',*,*,#197,.T.);
#301=ORIENTED_EDGE('',*,*,#219,.T.);
#302=ORIENTED_EDGE('',*,*,#204,.F.);
#303=ORIENTED_EDGE('',*,*,#199,.F.);
#304=ORIENTED_EDGE('',*,*,#210,.T.);
#305=ORIENTED_EDGE('',*,*,#208,.F.);
#306=ORIENTED_EDGE('',*,*,#220,.T.);
#307=ORIENTED_EDGE('',*,*,#215,.F.);
#308=ORIENTED_EDGE('',*,*,#221,.T.);
#309=ORIENTED_EDGE('',*,*,#187,.F.);
#310=ORIENTED_EDGE('',*,*,#188,.F.);
#311=ORIENTED_EDGE('',*,*,#221,.F.);
#312=ORIENTED_EDGE('',*,*,#214,.T.);
#313=ORIENTED_EDGE('',*,*,#211,.T.);
#314=ORIENTED_EDGE('',*,*,#217,.T.);
#315=ORIENTED_EDGE('',*,*,#216,.T.);
#316=ORIENTED_EDGE('',*,*,#220,.F.);
#317=ORIENTED_EDGE('',*,*,#207,.F.);
#318=PLANE('',#361);
#319=PLANE('',#365);
#320=PLANE('',#369);
#321=PLANE('',#379);
#322=PLANE('',#387);
#323=PLANE('',#388);
#324=PLANE('',#391);
#325=PLANE('',#395);
#326=PLANE('',#396);
#327=PLANE('',#397);
#328=ADVANCED_FACE('',(#85),#318,.T.);
#329=ADVANCED_FACE('',(#86),#76,.T.);
#330=ADVANCED_FACE('',(#87,#15),#319,.T.);
#331=ADVANCED_FACE('',(#88),#77,.T.);
#332=ADVANCED_FACE('',(#89),#320,.T.);
#333=ADVANCED_FACE('',(#90),#78,.T.);
#334=ADVANCED_FACE('',(#91),#321,.T.);
#335=ADVANCED_FACE('',(#92),#79,.T.);
#336=ADVANCED_FACE('',(#93),#80,.T.);
#337=ADVANCED_FACE('',(#94),#322,.T.);
#338=ADVANCED_FACE('',(#95),#323,.T.);
#339=ADVANCED_FACE('',(#96),#81,.T.);
#340=ADVANCED_FACE('',(#97),#324,.T.);
#341=ADVANCED_FACE('',(#98),#82,.T.);
#342=ADVANCED_FACE('',(#99),#83,.T.);
#343=ADVANCED_FACE('',(#100),#84,.T.);
#344=ADVANCED_FACE('',(#101),#325,.F.);
#345=ADVANCED_FACE('',(#102),#326,.T.);
#346=ADVANCED_FACE('',(#103),#327,.T.);
#347=CLOSED_SHELL('',(#328,#329,#330,#331,#332,#333,#334,#335,#336,#337,
#338,#339,#340,#341,#342,#343,#344,#345,#346));
#348=DERIVED_UNIT_ELEMENT(#350,1.);
#349=DERIVED_UNIT_ELEMENT(#609,-3.);
#350=(
MASS_UNIT()
NAMED_UNIT(*)
SI_UNIT(.KILO.,.GRAM.)
);
#351=DERIVED_UNIT((#348,#349));
#352=MEASURE_REPRESENTATION_ITEM('density measure',
POSITIVE_RATIO_MEASURE(7850.),#351);
#353=PROPERTY_DEFINITION_REPRESENTATION(#358,#355);
#354=PROPERTY_DEFINITION_REPRESENTATION(#359,#356);
#355=REPRESENTATION('material name',(#357),#606);
#356=REPRESENTATION('density',(#352),#606);
#357=DESCRIPTIVE_REPRESENTATION_ITEM('Steel','Steel');
#358=PROPERTY_DEFINITION('material property','material name',#616);
#359=PROPERTY_DEFINITION('material property','density of part',#616);
#360=AXIS2_PLACEMENT_3D('',#504,#398,#399);
#361=AXIS2_PLACEMENT_3D('',#505,#400,#401);
#362=AXIS2_PLACEMENT_3D('',#507,#402,#403);
#363=AXIS2_PLACEMENT_3D('',#508,#404,#405);
#364=AXIS2_PLACEMENT_3D('',#511,#407,#408);
#365=AXIS2_PLACEMENT_3D('',#512,#409,#410);
#366=AXIS2_PLACEMENT_3D('',#529,#419,#420);
#367=AXIS2_PLACEMENT_3D('',#531,#421,#422);
#368=AXIS2_PLACEMENT_3D('',#535,#424,#425);
#369=AXIS2_PLACEMENT_3D('',#539,#428,#429);
#370=AXIS2_PLACEMENT_3D('',#543,#431,#432);
#371=AXIS2_PLACEMENT_3D('',#546,#434,#435);
#372=AXIS2_PLACEMENT_3D('',#548,#436,#437);
#373=AXIS2_PLACEMENT_3D('',#550,#438,#439);
#374=AXIS2_PLACEMENT_3D('',#552,#440,#441);
#375=AXIS2_PLACEMENT_3D('',#554,#442,#443);
#376=AXIS2_PLACEMENT_3D('',#555,#444,#445);
#377=AXIS2_PLACEMENT_3D('',#556,#446,#447);
#378=AXIS2_PLACEMENT_3D('',#559,#449,#450);
#379=AXIS2_PLACEMENT_3D('',#560,#451,#452);
#380=AXIS2_PLACEMENT_3D('',#563,#453,#454);
#381=AXIS2_PLACEMENT_3D('',#565,#455,#456);
#382=AXIS2_PLACEMENT_3D('',#566,#457,#458);
#383=AXIS2_PLACEMENT_3D('',#567,#459,#460);
#384=AXIS2_PLACEMENT_3D('',#568,#461,#462);
#385=AXIS2_PLACEMENT_3D('',#570,#464,#465);
#386=AXIS2_PLACEMENT_3D('',#576,#468,#469);
#387=AXIS2_PLACEMENT_3D('',#578,#471,#472);
#388=AXIS2_PLACEMENT_3D('',#580,#474,#475);
#389=AXIS2_PLACEMENT_3D('',#584,#478,#479);
#390=AXIS2_PLACEMENT_3D('',#590,#482,#483);
#391=AXIS2_PLACEMENT_3D('',#592,#485,#486);
#392=AXIS2_PLACEMENT_3D('',#594,#488,#489);
#393=AXIS2_PLACEMENT_3D('',#596,#491,#492);
#394=AXIS2_PLACEMENT_3D('',#598,#494,#495);
#395=AXIS2_PLACEMENT_3D('',#599,#496,#497);
#396=AXIS2_PLACEMENT_3D('',#602,#500,#501);
#397=AXIS2_PLACEMENT_3D('',#603,#502,#503);
#398=DIRECTION('axis',(0.,0.,1.));
#399=DIRECTION('refdir',(1.,0.,0.));
#400=DIRECTION('center_axis',(1.110223024625E-16,-1.,0.));
#401=DIRECTION('ref_axis',(0.,0.,-1.));
#402=DIRECTION('center_axis',(1.110223024625E-16,-1.,0.));
#403=DIRECTION('ref_axis',(0.,0.,1.));
#404=DIRECTION('center_axis',(1.110223024625E-16,-1.,0.));
#405=DIRECTION('ref_axis',(0.,0.,1.));
#406=DIRECTION('',(-1.110223024625E-16,1.,0.));
#407=DIRECTION('center_axis',(-1.110223024625E-16,1.,0.));
#408=DIRECTION('ref_axis',(0.,0.,1.));
#409=DIRECTION('center_axis',(1.110223024625E-16,-1.,0.));
#410=DIRECTION('ref_axis',(1.,1.110223024625E-16,0.));
#411=DIRECTION('',(0.,0.,-1.));
#412=DIRECTION('',(1.,4.978996250515E-17,0.));
#413=DIRECTION('',(0.,0.,1.));
#414=DIRECTION('',(1.,1.110223024625E-16,0.));
#415=DIRECTION('',(0.,0.,1.));
#416=DIRECTION('',(1.,4.978996250515E-17,0.));
#417=DIRECTION('',(0.,0.,1.));
#418=DIRECTION('',(-1.,-1.110223024625E-16,0.));
#419=DIRECTION('center_axis',(0.,0.,1.));
#420=DIRECTION('ref_axis',(0.707106781186548,-0.707106781186548,0.));
#421=DIRECTION('center_axis',(0.,0.,-1.));
#422=DIRECTION('ref_axis',(0.707106781186548,-0.707106781186548,0.));
#423=DIRECTION('',(0.,-2.198461434901E-17,1.));
#424=DIRECTION('center_axis',(0.,0.,1.));
#425=DIRECTION('ref_axis',(0.707106781186548,-0.707106781186548,0.));
#426=DIRECTION('',(0.,0.,1.));
#427=DIRECTION('',(0.,0.,1.));
#428=DIRECTION('center_axis',(0.,0.,1.));
#429=DIRECTION('ref_axis',(1.110223024625E-16,-1.,0.));
#430=DIRECTION('',(-1.110223024625E-16,1.,0.));
#431=DIRECTION('center_axis',(0.,0.,1.));
#432=DIRECTION('ref_axis',(1.,1.110223024625E-16,0.));
#433=DIRECTION('',(1.110223024625E-16,-1.,0.));
#434=DIRECTION('center_axis',(0.,0.,-1.));
#435=DIRECTION('ref_axis',(-0.707106781186548,-0.707106781186548,0.));
#436=DIRECTION('center_axis',(0.,0.,1.));
#437=DIRECTION('ref_axis',(1.110223024625E-16,-1.,0.));
#438=DIRECTION('center_axis',(0.,0.,1.));
#439=DIRECTION('ref_axis',(1.110223024625E-16,-1.,0.));
#440=DIRECTION('center_axis',(0.,0.,1.));
#441=DIRECTION('ref_axis',(0.666666666666817,-0.745355992499795,0.));
#442=DIRECTION('center_axis',(0.,0.,1.));
#443=DIRECTION('ref_axis',(1.110223024625E-16,-1.,0.));
#444=DIRECTION('center_axis',(0.,0.,1.));
#445=DIRECTION('ref_axis',(1.110223024625E-16,-1.,0.));
#446=DIRECTION('center_axis',(0.,0.,1.));
#447=DIRECTION('ref_axis',(1.110223024625E-16,-1.,0.));
#448=DIRECTION('',(0.,0.,1.));
#449=DIRECTION('center_axis',(0.,0.,1.));
#450=DIRECTION('ref_axis',(1.110223024625E-16,-1.,0.));
#451=DIRECTION('center_axis',(0.,0.,1.));
#452=DIRECTION('ref_axis',(1.110223024625E-16,-1.,0.));
#453=DIRECTION('center_axis',(0.,0.,1.));
#454=DIRECTION('ref_axis',(0.666666666666817,-0.745355992499795,0.));
#455=DIRECTION('center_axis',(0.,0.,1.));
#456=DIRECTION('ref_axis',(1.110223024625E-16,-1.,0.));
#457=DIRECTION('center_axis',(0.,0.,1.));
#458=DIRECTION('ref_axis',(1.110223024625E-16,-1.,0.));
#459=DIRECTION('center_axis',(0.,0.,1.));
#460=DIRECTION('ref_axis',(1.110223024625E-16,-1.,0.));
#461=DIRECTION('center_axis',(0.,0.,1.));
#462=DIRECTION('ref_axis',(1.110223024625E-16,-1.,0.));
#463=DIRECTION('',(0.,0.,1.));
#464=DIRECTION('center_axis',(0.,0.,1.));
#465=DIRECTION('ref_axis',(-0.707106781186548,-0.707106781186548,0.));
#466=DIRECTION('',(0.,0.,-1.));
#467=DIRECTION('',(0.,4.396922869803E-17,-1.));
#468=DIRECTION('center_axis',(0.,0.,1.));
#469=DIRECTION('ref_axis',(-0.707106781186548,-0.707106781186548,0.));
#470=DIRECTION('',(0.,0.,-1.));
#471=DIRECTION('center_axis',(1.110223024625E-16,-1.,0.));
#472=DIRECTION('ref_axis',(1.,1.110223024625E-16,0.));
#473=DIRECTION('',(-1.,-1.110223024625E-16,0.));
#474=DIRECTION('center_axis',(1.,1.110223024625E-16,0.));
#475=DIRECTION('ref_axis',(-1.110223024625E-16,1.,0.));
#476=DIRECTION('',(1.110223024625E-16,-1.,0.));
#477=DIRECTION('',(0.,0.,1.));
#478=DIRECTION('center_axis',(0.,0.,1.));
#479=DIRECTION('ref_axis',(1.,1.110223024625E-16,0.));
#480=DIRECTION('',(0.,0.,1.));
#481=DIRECTION('',(0.,0.,1.));
#482=DIRECTION('center_axis',(0.,0.,1.));
#483=DIRECTION('ref_axis',(1.,1.110223024625E-16,0.));
#484=DIRECTION('',(0.,0.,-1.));
#485=DIRECTION('center_axis',(-1.,-6.748414463408E-17,0.));
#486=DIRECTION('ref_axis',(6.748414463408E-17,-1.,0.));
#487=DIRECTION('',(-1.110223024625E-16,1.,0.));
#488=DIRECTION('center_axis',(0.,0.,1.));
#489=DIRECTION('ref_axis',(1.110223024625E-16,-1.,0.));
#490=DIRECTION('',(0.,0.,-1.));
#491=DIRECTION('center_axis',(0.,0.,1.));
#492=DIRECTION('ref_axis',(-5.847174596359E-16,1.,0.));
#493=DIRECTION('',(0.,0.,1.));
#494=DIRECTION('center_axis',(0.,0.,1.));
#495=DIRECTION('ref_axis',(1.110223024625E-16,-1.,0.));
#496=DIRECTION('center_axis',(0.,0.,1.));
#497=DIRECTION('ref_axis',(1.,0.,0.));
#498=DIRECTION('',(-6.748414463408E-17,1.,0.));
#499=DIRECTION('',(1.110223024625E-16,-1.,0.));
#500=DIRECTION('center_axis',(1.,1.110223024625E-16,0.));
#501=DIRECTION('ref_axis',(-1.110223024625E-16,1.,0.));
#502=DIRECTION('center_axis',(-1.,-6.748414463408E-17,0.));
#503=DIRECTION('ref_axis',(6.748414463408E-17,-1.,0.));
#504=CARTESIAN_POINT('',(0.,0.,0.));
#505=CARTESIAN_POINT('Origin',(2.831068712794E-15,-2.,5.9));
#506=CARTESIAN_POINT('',(2.52490701300691E-15,-2.,3.4));
#507=CARTESIAN_POINT('Origin',(2.83106871279375E-15,-2.,5.9));
#508=CARTESIAN_POINT('Origin',(1.7763568394E-15,7.5,5.9));
#509=CARTESIAN_POINT('',(2.082518539187E-15,7.5,3.4));
#510=CARTESIAN_POINT('',(2.08251853918684E-15,7.5,3.4));
#511=CARTESIAN_POINT('Origin',(1.7763568394E-15,7.5,5.9));
#512=CARTESIAN_POINT('Origin',(-5.,7.5,0.1));
#513=CARTESIAN_POINT('',(7.95,7.5,0.9));
#514=CARTESIAN_POINT('',(7.95,7.5,0.4));
#515=CARTESIAN_POINT('',(7.95,7.5,0.1));
#516=CARTESIAN_POINT('',(6.81136319138,7.5,0.9));
#517=CARTESIAN_POINT('',(-8.25,7.5,0.9));
#518=CARTESIAN_POINT('',(6.81136319138,7.5,10.9));
#519=CARTESIAN_POINT('',(6.81136319138,7.5,0.1));
#520=CARTESIAN_POINT('',(-6.81136319138,7.5,10.9));
#521=CARTESIAN_POINT('',(-6.81136319138,7.5,10.9));
#522=CARTESIAN_POINT('',(-6.81136319138,7.5,0.9));
#523=CARTESIAN_POINT('',(-6.81136319138,7.5,0.1));
#524=CARTESIAN_POINT('',(-7.95,7.5,0.9));
#525=CARTESIAN_POINT('',(-8.25,7.5,0.9));
#526=CARTESIAN_POINT('',(-7.95,7.5,0.4));
#527=CARTESIAN_POINT('',(-7.95,7.5,0.1));
#528=CARTESIAN_POINT('',(-5.422071482609,7.5,0.4));
#529=CARTESIAN_POINT('Origin',(7.95,7.8,0.1));
#530=CARTESIAN_POINT('',(8.25,7.8,0.9));
#531=CARTESIAN_POINT('Origin',(7.95,7.8,0.9));
#532=CARTESIAN_POINT('',(7.95,7.5,-39.5));
#533=CARTESIAN_POINT('',(7.95,7.5,-39.5));
#534=CARTESIAN_POINT('',(8.25,7.8,-39.5));
#535=CARTESIAN_POINT('Origin',(7.95,7.8,-39.5));
#536=CARTESIAN_POINT('',(8.25,7.8,0.4));
#537=CARTESIAN_POINT('',(8.25,7.8,-39.5));
#538=CARTESIAN_POINT('',(8.25,7.8,0.1));
#539=CARTESIAN_POINT('Origin',(-3.131266553777E-15,21.855291522565,0.9));
#540=CARTESIAN_POINT('',(8.25,33.,0.9));
#541=CARTESIAN_POINT('',(8.25,7.5,0.9));
#542=CARTESIAN_POINT('',(-8.25,33.,0.9));
#543=CARTESIAN_POINT('Origin',(-4.385380947269E-15,33.,0.9));
#544=CARTESIAN_POINT('',(-8.25,7.8,0.9));
#545=CARTESIAN_POINT('',(-8.25,33.,0.9));
#546=CARTESIAN_POINT('Origin',(-7.95,7.8,0.9));
#547=CARTESIAN_POINT('',(-5.,16.229490168752,0.9));
#548=CARTESIAN_POINT('Origin',(1.427822279853E-15,10.639320225002,0.9));
#549=CARTESIAN_POINT('',(-5.,27.40983005625,0.9));
#550=CARTESIAN_POINT('Origin',(-1.478779333708E-15,21.819660112501,0.9));
#551=CARTESIAN_POINT('',(5.,27.40983005625,0.9));
#552=CARTESIAN_POINT('Origin',(-4.17756121122E-15,33.,0.9));
#553=CARTESIAN_POINT('',(5.,16.229490168752,0.9));
#554=CARTESIAN_POINT('Origin',(-1.478779333708E-15,21.819660112501,0.9));
#555=CARTESIAN_POINT('Origin',(1.427822279853E-15,10.639320225002,0.9));
#556=CARTESIAN_POINT('Origin',(1.427822279853E-15,10.639320225002,0.1));
#557=CARTESIAN_POINT('',(5.,16.229490168752,10.9));
#558=CARTESIAN_POINT('',(5.,16.229490168752,0.1));
#559=CARTESIAN_POINT('Origin',(1.427822279853E-15,10.639320225002,10.9));
#560=CARTESIAN_POINT('Origin',(-1.254529447376E-15,22.373403401797,10.9));
#561=CARTESIAN_POINT('',(5.,27.40983005625,10.9));
#562=CARTESIAN_POINT('',(-5.,27.40983005625,10.9));
#563=CARTESIAN_POINT('Origin',(-4.17756121122E-15,33.,10.9));
#564=CARTESIAN_POINT('',(-5.,16.229490168752,10.9));
#565=CARTESIAN_POINT('Origin',(-1.478779333708E-15,21.819660112501,10.9));
#566=CARTESIAN_POINT('Origin',(1.427822279853E-15,10.639320225002,10.9));
#567=CARTESIAN_POINT('Origin',(-1.478779333708E-15,21.819660112501,10.9));
#568=CARTESIAN_POINT('Origin',(1.427822279853E-15,10.639320225002,0.1));
#569=CARTESIAN_POINT('',(-5.,16.229490168752,0.1));
#570=CARTESIAN_POINT('Origin',(-7.95,7.8,0.1));
#571=CARTESIAN_POINT('',(-8.25,7.8,0.4));
#572=CARTESIAN_POINT('',(-8.25,7.8,0.1));
#573=CARTESIAN_POINT('',(-8.25,7.8,-39.5));
#574=CARTESIAN_POINT('',(-8.25,7.8,0.9));
#575=CARTESIAN_POINT('',(-7.95,7.5,-39.5));
#576=CARTESIAN_POINT('Origin',(-7.95,7.8,-39.5));
#577=CARTESIAN_POINT('',(-7.95,7.5,0.9));
#578=CARTESIAN_POINT('Origin',(-5.,7.5,0.1));
#579=CARTESIAN_POINT('',(-2.5,7.5,-39.5));
#580=CARTESIAN_POINT('Origin',(8.25,7.5,0.1));
#581=CARTESIAN_POINT('',(8.25,33.,0.4));
#582=CARTESIAN_POINT('',(8.25,9.499004723515,0.4));
#583=CARTESIAN_POINT('',(8.25,33.,0.1));
#584=CARTESIAN_POINT('Origin',(-4.385380947269E-15,33.,0.1));
#585=CARTESIAN_POINT('',(-8.25,33.,0.4));
#586=CARTESIAN_POINT('',(-8.25,33.,0.1));
#587=CARTESIAN_POINT('',(8.25,33.,-39.5));
#588=CARTESIAN_POINT('',(8.25,33.,-39.5));
#589=CARTESIAN_POINT('',(-8.25,33.,-39.5));
#590=CARTESIAN_POINT('Origin',(-4.385380947269E-15,33.,-39.5));
#591=CARTESIAN_POINT('',(-8.25,33.,0.9));
#592=CARTESIAN_POINT('Origin',(-8.25,33.,0.1));
#593=CARTESIAN_POINT('',(-8.25,22.249004723515,0.4));
#594=CARTESIAN_POINT('Origin',(-1.478779333708E-15,21.819660112501,0.1));
#595=CARTESIAN_POINT('',(-5.,27.40983005625,0.1));
#596=CARTESIAN_POINT('Origin',(-4.17756121122E-15,33.,0.1));
#597=CARTESIAN_POINT('',(5.,27.40983005625,0.1));
#598=CARTESIAN_POINT('Origin',(-1.478779333708E-15,21.819660112501,0.1));
#599=CARTESIAN_POINT('Origin',(0.,0.,-39.5));
#600=CARTESIAN_POINT('',(-8.25,16.5,-39.5));
#601=CARTESIAN_POINT('',(8.25,3.75,-39.5));
#602=CARTESIAN_POINT('Origin',(8.25,7.5,0.1));
#603=CARTESIAN_POINT('Origin',(-8.25,33.,0.1));
#604=UNCERTAINTY_MEASURE_WITH_UNIT(LENGTH_MEASURE(0.01),#608,
'DISTANCE_ACCURACY_VALUE',
'Maximum model space distance between geometric entities at asserted c
onnectivities');
#605=UNCERTAINTY_MEASURE_WITH_UNIT(LENGTH_MEASURE(0.01),#608,
'DISTANCE_ACCURACY_VALUE',
'Maximum model space distance between geometric entities at asserted c
onnectivities');
#606=(
GEOMETRIC_REPRESENTATION_CONTEXT(3)
GLOBAL_UNCERTAINTY_ASSIGNED_CONTEXT((#604))
GLOBAL_UNIT_ASSIGNED_CONTEXT((#608,#610,#611))
REPRESENTATION_CONTEXT('','3D')
);
#607=(
GEOMETRIC_REPRESENTATION_CONTEXT(3)
GLOBAL_UNCERTAINTY_ASSIGNED_CONTEXT((#605))
GLOBAL_UNIT_ASSIGNED_CONTEXT((#608,#610,#611))
REPRESENTATION_CONTEXT('','3D')
);
#608=(
LENGTH_UNIT()
NAMED_UNIT(*)
SI_UNIT(.MILLI.,.METRE.)
);
#609=(
LENGTH_UNIT()
NAMED_UNIT(*)
SI_UNIT($,.METRE.)
);
#610=(
NAMED_UNIT(*)
PLANE_ANGLE_UNIT()
SI_UNIT($,.RADIAN.)
);
#611=(
NAMED_UNIT(*)
SI_UNIT($,.STERADIAN.)
SOLID_ANGLE_UNIT()
);
#612=SHAPE_DEFINITION_REPRESENTATION(#613,#614);
#613=PRODUCT_DEFINITION_SHAPE('',$,#616);
#614=SHAPE_REPRESENTATION('',(#360),#606);
#615=PRODUCT_DEFINITION_CONTEXT('part definition',#620,'design');
#616=PRODUCT_DEFINITION('Open CASCADE STEP translator 7.7 1',
'(Unsaved)',#617,#615);
#617=PRODUCT_DEFINITION_FORMATION('',$,#622);
#618=PRODUCT_RELATED_PRODUCT_CATEGORY('(Unsaved)','(Unsaved)',(#622));
#619=APPLICATION_PROTOCOL_DEFINITION('international standard',
'automotive_design',2009,#620);
#620=APPLICATION_CONTEXT(
'Core Data for Automotive Mechanical Design Process');
#621=PRODUCT_CONTEXT('part definition',#620,'mechanical');
#622=PRODUCT('Open CASCADE STEP translator 7.7 1','(Unsaved)',
'Open CASCADE Model',(#621));
#623=PRESENTATION_STYLE_ASSIGNMENT((#624));
#624=SURFACE_STYLE_USAGE(.BOTH.,#625);
#625=SURFACE_SIDE_STYLE('',(#626));
#626=SURFACE_STYLE_FILL_AREA(#627);
#627=FILL_AREA_STYLE('Steel - Satin',(#628));
#628=FILL_AREA_STYLE_COLOUR('Steel - Satin',#629);
#629=COLOUR_RGB('Steel - Satin',0.627450980392157,0.627450980392157,0.627450980392157);
ENDSEC;
END-ISO-10303-21;
