ISO-10303-21;
HEADER;
/* Generated by software containing ST-Developer
 * from STEP Tools, Inc. (www.steptools.com) 
 */

FILE_DESCRIPTION(
/* description */ (''),
/* implementation_level */ '2;1');

FILE_NAME(
/* name */ 'Cabineo_8_connector_9dot1_19dot5.step',
/* time_stamp */ '2026-05-14T20:59:30+02:00',
/* author */ (''),
/* organization */ (''),
/* preprocessor_version */ 'ST-DEVELOPER v20.1',
/* originating_system */ 'Autodesk Translation Framework v15.8.0.0',
/* authorisation */ '');

FILE_SCHEMA (('AUTOMOTIVE_DESIGN { 1 0 10303 214 3 1 1 }'));
ENDSEC;

DATA;
#10=MECHANICAL_DESIGN_GEOMETRIC_PRESENTATION_REPRESENTATION('',(#13),#619);
#11=SHAPE_REPRESENTATION_RELATIONSHIP('SRR','None',#626,#12);
#12=ADVANCED_BREP_SHAPE_REPRESENTATION('',(#14),#618);
#13=STYLED_ITEM('',(#636),#14);
#14=MANIFOLD_SOLID_BREP('Body1',#345);
#15=FACE_BOUND('',#55,.T.);
#16=FACE_BOUND('',#57,.T.);
#17=PLANE('',#368);
#18=PLANE('',#371);
#19=PLANE('',#373);
#20=PLANE('',#375);
#21=PLANE('',#378);
#22=PLANE('',#384);
#23=PLANE('',#391);
#24=PLANE('',#396);
#25=TOROIDAL_SURFACE('',#362,9.45,0.3);
#26=FACE_OUTER_BOUND('',#47,.T.);
#27=FACE_OUTER_BOUND('',#48,.T.);
#28=FACE_OUTER_BOUND('',#49,.T.);
#29=FACE_OUTER_BOUND('',#50,.T.);
#30=FACE_OUTER_BOUND('',#51,.T.);
#31=FACE_OUTER_BOUND('',#52,.T.);
#32=FACE_OUTER_BOUND('',#53,.T.);
#33=FACE_OUTER_BOUND('',#54,.T.);
#34=FACE_OUTER_BOUND('',#56,.T.);
#35=FACE_OUTER_BOUND('',#58,.T.);
#36=FACE_OUTER_BOUND('',#59,.T.);
#37=FACE_OUTER_BOUND('',#60,.T.);
#38=FACE_OUTER_BOUND('',#61,.T.);
#39=FACE_OUTER_BOUND('',#62,.T.);
#40=FACE_OUTER_BOUND('',#63,.T.);
#41=FACE_OUTER_BOUND('',#64,.T.);
#42=FACE_OUTER_BOUND('',#65,.T.);
#43=FACE_OUTER_BOUND('',#66,.T.);
#44=FACE_OUTER_BOUND('',#67,.T.);
#45=FACE_OUTER_BOUND('',#68,.T.);
#46=FACE_OUTER_BOUND('',#69,.T.);
#47=EDGE_LOOP('',(#218,#219,#220,#221));
#48=EDGE_LOOP('',(#222,#223,#224,#225));
#49=EDGE_LOOP('',(#226,#227,#228,#229));
#50=EDGE_LOOP('',(#230,#231,#232,#233));
#51=EDGE_LOOP('',(#234,#235,#236,#237));
#52=EDGE_LOOP('',(#238,#239,#240,#241));
#53=EDGE_LOOP('',(#242,#243,#244,#245));
#54=EDGE_LOOP('',(#246,#247,#248,#249,#250,#251,#252,#253));
#55=EDGE_LOOP('',(#254));
#56=EDGE_LOOP('',(#255,#256,#257,#258));
#57=EDGE_LOOP('',(#259,#260));
#58=EDGE_LOOP('',(#261,#262,#263,#264,#265,#266,#267,#268,#269,#270));
#59=EDGE_LOOP('',(#271));
#60=EDGE_LOOP('',(#272,#273,#274,#275));
#61=EDGE_LOOP('',(#276,#277,#278,#279));
#62=EDGE_LOOP('',(#280,#281,#282,#283));
#63=EDGE_LOOP('',(#284,#285));
#64=EDGE_LOOP('',(#286,#287,#288,#289));
#65=EDGE_LOOP('',(#290,#291,#292,#293));
#66=EDGE_LOOP('',(#294,#295,#296,#297,#298,#299));
#67=EDGE_LOOP('',(#300,#301,#302,#303));
#68=EDGE_LOOP('',(#304,#305,#306,#307));
#69=EDGE_LOOP('',(#308,#309,#310,#311));
#70=CIRCLE('',#361,0.3);
#71=CIRCLE('',#363,0.3);
#72=CIRCLE('',#364,9.75);
#73=CIRCLE('',#365,9.45);
#74=CIRCLE('',#370,9.75);
#75=CIRCLE('',#374,4.55);
#76=CIRCLE('',#376,4.99999999999997);
#77=CIRCLE('',#377,4.99999999999997);
#78=CIRCLE('',#379,7.5);
#79=CIRCLE('',#380,7.5);
#80=CIRCLE('',#381,7.5);
#81=CIRCLE('',#382,7.5);
#82=CIRCLE('',#383,7.5);
#83=CIRCLE('',#385,4.55);
#84=CIRCLE('',#388,4.99999999999997);
#85=CIRCLE('',#390,4.99999999999997);
#86=CIRCLE('',#393,7.5);
#87=CIRCLE('',#395,7.5);
#88=CIRCLE('',#397,7.5);
#89=CIRCLE('',#398,7.5);
#90=CIRCLE('',#399,7.5);
#91=LINE('',#523,#115);
#92=LINE('',#526,#116);
#93=LINE('',#537,#117);
#94=LINE('',#538,#118);
#95=LINE('',#541,#119);
#96=LINE('',#543,#120);
#97=LINE('',#544,#121);
#98=LINE('',#547,#122);
#99=LINE('',#551,#123);
#100=LINE('',#552,#124);
#101=LINE('',#554,#125);
#102=LINE('',#555,#126);
#103=LINE('',#558,#127);
#104=LINE('',#560,#128);
#105=LINE('',#562,#129);
#106=LINE('',#564,#130);
#107=LINE('',#565,#131);
#108=LINE('',#587,#132);
#109=LINE('',#590,#133);
#110=LINE('',#593,#134);
#111=LINE('',#599,#135);
#112=LINE('',#602,#136);
#113=LINE('',#612,#137);
#114=LINE('',#614,#138);
#115=VECTOR('',#409,10.);
#116=VECTOR('',#412,10.);
#117=VECTOR('',#425,10.);
#118=VECTOR('',#426,10.);
#119=VECTOR('',#429,10.);
#120=VECTOR('',#430,10.);
#121=VECTOR('',#431,10.);
#122=VECTOR('',#434,10.);
#123=VECTOR('',#439,10.);
#124=VECTOR('',#440,10.);
#125=VECTOR('',#443,0.3);
#126=VECTOR('',#444,0.3);
#127=VECTOR('',#447,10.);
#128=VECTOR('',#448,10.);
#129=VECTOR('',#449,10.);
#130=VECTOR('',#450,10.);
#131=VECTOR('',#451,10.);
#132=VECTOR('',#478,4.55);
#133=VECTOR('',#481,10.);
#134=VECTOR('',#484,10.);
#135=VECTOR('',#493,10.);
#136=VECTOR('',#496,10.);
#137=VECTOR('',#511,10.);
#138=VECTOR('',#514,10.);
#139=ELLIPSE('',#360,0.424264068711928,0.3);
#140=ELLIPSE('',#367,0.424264068711929,0.3);
#141=VERTEX_POINT('',#519);
#142=VERTEX_POINT('',#520);
#143=VERTEX_POINT('',#522);
#144=VERTEX_POINT('',#524);
#145=VERTEX_POINT('',#528);
#146=VERTEX_POINT('',#529);
#147=VERTEX_POINT('',#534);
#148=VERTEX_POINT('',#535);
#149=VERTEX_POINT('',#540);
#150=VERTEX_POINT('',#542);
#151=VERTEX_POINT('',#546);
#152=VERTEX_POINT('',#550);
#153=VERTEX_POINT('',#557);
#154=VERTEX_POINT('',#559);
#155=VERTEX_POINT('',#561);
#156=VERTEX_POINT('',#563);
#157=VERTEX_POINT('',#566);
#158=VERTEX_POINT('',#569);
#159=VERTEX_POINT('',#570);
#160=VERTEX_POINT('',#574);
#161=VERTEX_POINT('',#576);
#162=VERTEX_POINT('',#578);
#163=VERTEX_POINT('',#580);
#164=VERTEX_POINT('',#584);
#165=VERTEX_POINT('',#589);
#166=VERTEX_POINT('',#591);
#167=VERTEX_POINT('',#598);
#168=VERTEX_POINT('',#600);
#169=VERTEX_POINT('',#606);
#170=VERTEX_POINT('',#608);
#171=EDGE_CURVE('',#141,#142,#139,.T.);
#172=EDGE_CURVE('',#142,#143,#91,.T.);
#173=EDGE_CURVE('',#143,#144,#70,.T.);
#174=EDGE_CURVE('',#144,#141,#92,.T.);
#175=EDGE_CURVE('',#145,#146,#71,.T.);
#176=EDGE_CURVE('',#146,#144,#72,.T.);
#177=EDGE_CURVE('',#143,#145,#73,.T.);
#178=EDGE_CURVE('',#147,#148,#140,.T.);
#179=EDGE_CURVE('',#148,#146,#93,.T.);
#180=EDGE_CURVE('',#145,#147,#94,.T.);
#181=EDGE_CURVE('',#144,#149,#95,.T.);
#182=EDGE_CURVE('',#150,#149,#96,.F.);
#183=EDGE_CURVE('',#141,#150,#97,.F.);
#184=EDGE_CURVE('',#146,#151,#98,.T.);
#185=EDGE_CURVE('',#149,#151,#74,.F.);
#186=EDGE_CURVE('',#148,#152,#99,.T.);
#187=EDGE_CURVE('',#151,#152,#100,.F.);
#188=EDGE_CURVE('',#141,#148,#101,.T.);
#189=EDGE_CURVE('',#142,#147,#102,.T.);
#190=EDGE_CURVE('',#153,#150,#103,.T.);
#191=EDGE_CURVE('',#153,#154,#104,.T.);
#192=EDGE_CURVE('',#155,#154,#105,.T.);
#193=EDGE_CURVE('',#156,#155,#106,.T.);
#194=EDGE_CURVE('',#152,#156,#107,.T.);
#195=EDGE_CURVE('',#157,#157,#75,.T.);
#196=EDGE_CURVE('',#158,#159,#76,.T.);
#197=EDGE_CURVE('',#159,#158,#77,.T.);
#198=EDGE_CURVE('',#160,#156,#78,.T.);
#199=EDGE_CURVE('',#161,#160,#79,.T.);
#200=EDGE_CURVE('',#162,#161,#80,.T.);
#201=EDGE_CURVE('',#163,#162,#81,.T.);
#202=EDGE_CURVE('',#153,#163,#82,.T.);
#203=EDGE_CURVE('',#164,#164,#83,.F.);
#204=EDGE_CURVE('',#164,#157,#108,.T.);
#205=EDGE_CURVE('',#158,#165,#109,.T.);
#206=EDGE_CURVE('',#166,#165,#84,.F.);
#207=EDGE_CURVE('',#159,#166,#110,.T.);
#208=EDGE_CURVE('',#165,#166,#85,.F.);
#209=EDGE_CURVE('',#160,#167,#111,.T.);
#210=EDGE_CURVE('',#168,#167,#86,.T.);
#211=EDGE_CURVE('',#168,#161,#112,.T.);
#212=EDGE_CURVE('',#167,#155,#87,.T.);
#213=EDGE_CURVE('',#169,#168,#88,.T.);
#214=EDGE_CURVE('',#154,#170,#89,.T.);
#215=EDGE_CURVE('',#170,#169,#90,.T.);
#216=EDGE_CURVE('',#162,#169,#113,.T.);
#217=EDGE_CURVE('',#163,#170,#114,.T.);
#218=ORIENTED_EDGE('',*,*,#171,.T.);
#219=ORIENTED_EDGE('',*,*,#172,.T.);
#220=ORIENTED_EDGE('',*,*,#173,.T.);
#221=ORIENTED_EDGE('',*,*,#174,.T.);
#222=ORIENTED_EDGE('',*,*,#175,.T.);
#223=ORIENTED_EDGE('',*,*,#176,.T.);
#224=ORIENTED_EDGE('',*,*,#173,.F.);
#225=ORIENTED_EDGE('',*,*,#177,.T.);
#226=ORIENTED_EDGE('',*,*,#178,.T.);
#227=ORIENTED_EDGE('',*,*,#179,.T.);
#228=ORIENTED_EDGE('',*,*,#175,.F.);
#229=ORIENTED_EDGE('',*,*,#180,.T.);
#230=ORIENTED_EDGE('',*,*,#174,.F.);
#231=ORIENTED_EDGE('',*,*,#181,.T.);
#232=ORIENTED_EDGE('',*,*,#182,.F.);
#233=ORIENTED_EDGE('',*,*,#183,.F.);
#234=ORIENTED_EDGE('',*,*,#176,.F.);
#235=ORIENTED_EDGE('',*,*,#184,.T.);
#236=ORIENTED_EDGE('',*,*,#185,.F.);
#237=ORIENTED_EDGE('',*,*,#181,.F.);
#238=ORIENTED_EDGE('',*,*,#179,.F.);
#239=ORIENTED_EDGE('',*,*,#186,.T.);
#240=ORIENTED_EDGE('',*,*,#187,.F.);
#241=ORIENTED_EDGE('',*,*,#184,.F.);
#242=ORIENTED_EDGE('',*,*,#171,.F.);
#243=ORIENTED_EDGE('',*,*,#188,.T.);
#244=ORIENTED_EDGE('',*,*,#178,.F.);
#245=ORIENTED_EDGE('',*,*,#189,.F.);
#246=ORIENTED_EDGE('',*,*,#183,.T.);
#247=ORIENTED_EDGE('',*,*,#190,.F.);
#248=ORIENTED_EDGE('',*,*,#191,.T.);
#249=ORIENTED_EDGE('',*,*,#192,.F.);
#250=ORIENTED_EDGE('',*,*,#193,.F.);
#251=ORIENTED_EDGE('',*,*,#194,.F.);
#252=ORIENTED_EDGE('',*,*,#186,.F.);
#253=ORIENTED_EDGE('',*,*,#188,.F.);
#254=ORIENTED_EDGE('',*,*,#195,.T.);
#255=ORIENTED_EDGE('',*,*,#172,.F.);
#256=ORIENTED_EDGE('',*,*,#189,.T.);
#257=ORIENTED_EDGE('',*,*,#180,.F.);
#258=ORIENTED_EDGE('',*,*,#177,.F.);
#259=ORIENTED_EDGE('',*,*,#196,.T.);
#260=ORIENTED_EDGE('',*,*,#197,.T.);
#261=ORIENTED_EDGE('',*,*,#182,.T.);
#262=ORIENTED_EDGE('',*,*,#185,.T.);
#263=ORIENTED_EDGE('',*,*,#187,.T.);
#264=ORIENTED_EDGE('',*,*,#194,.T.);
#265=ORIENTED_EDGE('',*,*,#198,.F.);
#266=ORIENTED_EDGE('',*,*,#199,.F.);
#267=ORIENTED_EDGE('',*,*,#200,.F.);
#268=ORIENTED_EDGE('',*,*,#201,.F.);
#269=ORIENTED_EDGE('',*,*,#202,.F.);
#270=ORIENTED_EDGE('',*,*,#190,.T.);
#271=ORIENTED_EDGE('',*,*,#203,.T.);
#272=ORIENTED_EDGE('',*,*,#203,.F.);
#273=ORIENTED_EDGE('',*,*,#204,.T.);
#274=ORIENTED_EDGE('',*,*,#195,.F.);
#275=ORIENTED_EDGE('',*,*,#204,.F.);
#276=ORIENTED_EDGE('',*,*,#196,.F.);
#277=ORIENTED_EDGE('',*,*,#205,.T.);
#278=ORIENTED_EDGE('',*,*,#206,.F.);
#279=ORIENTED_EDGE('',*,*,#207,.F.);
#280=ORIENTED_EDGE('',*,*,#197,.F.);
#281=ORIENTED_EDGE('',*,*,#207,.T.);
#282=ORIENTED_EDGE('',*,*,#208,.F.);
#283=ORIENTED_EDGE('',*,*,#205,.F.);
#284=ORIENTED_EDGE('',*,*,#208,.T.);
#285=ORIENTED_EDGE('',*,*,#206,.T.);
#286=ORIENTED_EDGE('',*,*,#199,.T.);
#287=ORIENTED_EDGE('',*,*,#209,.T.);
#288=ORIENTED_EDGE('',*,*,#210,.F.);
#289=ORIENTED_EDGE('',*,*,#211,.T.);
#290=ORIENTED_EDGE('',*,*,#198,.T.);
#291=ORIENTED_EDGE('',*,*,#193,.T.);
#292=ORIENTED_EDGE('',*,*,#212,.F.);
#293=ORIENTED_EDGE('',*,*,#209,.F.);
#294=ORIENTED_EDGE('',*,*,#213,.T.);
#295=ORIENTED_EDGE('',*,*,#210,.T.);
#296=ORIENTED_EDGE('',*,*,#212,.T.);
#297=ORIENTED_EDGE('',*,*,#192,.T.);
#298=ORIENTED_EDGE('',*,*,#214,.T.);
#299=ORIENTED_EDGE('',*,*,#215,.T.);
#300=ORIENTED_EDGE('',*,*,#200,.T.);
#301=ORIENTED_EDGE('',*,*,#211,.F.);
#302=ORIENTED_EDGE('',*,*,#213,.F.);
#303=ORIENTED_EDGE('',*,*,#216,.F.);
#304=ORIENTED_EDGE('',*,*,#201,.T.);
#305=ORIENTED_EDGE('',*,*,#216,.T.);
#306=ORIENTED_EDGE('',*,*,#215,.F.);
#307=ORIENTED_EDGE('',*,*,#217,.F.);
#308=ORIENTED_EDGE('',*,*,#202,.T.);
#309=ORIENTED_EDGE('',*,*,#217,.T.);
#310=ORIENTED_EDGE('',*,*,#214,.F.);
#311=ORIENTED_EDGE('',*,*,#191,.F.);
#312=CYLINDRICAL_SURFACE('',#359,0.3);
#313=CYLINDRICAL_SURFACE('',#366,0.3);
#314=CYLINDRICAL_SURFACE('',#369,9.75);
#315=CYLINDRICAL_SURFACE('',#372,0.3);
#316=CYLINDRICAL_SURFACE('',#386,4.55);
#317=CYLINDRICAL_SURFACE('',#387,4.99999999999997);
#318=CYLINDRICAL_SURFACE('',#389,4.99999999999997);
#319=CYLINDRICAL_SURFACE('',#392,7.5);
#320=CYLINDRICAL_SURFACE('',#394,7.5);
#321=CYLINDRICAL_SURFACE('',#400,7.5);
#322=CYLINDRICAL_SURFACE('',#401,7.5);
#323=CYLINDRICAL_SURFACE('',#402,7.5);
#324=ADVANCED_FACE('',(#26),#312,.T.);
#325=ADVANCED_FACE('',(#27),#25,.T.);
#326=ADVANCED_FACE('',(#28),#313,.T.);
#327=ADVANCED_FACE('',(#29),#17,.T.);
#328=ADVANCED_FACE('',(#30),#314,.T.);
#329=ADVANCED_FACE('',(#31),#18,.T.);
#330=ADVANCED_FACE('',(#32),#315,.T.);
#331=ADVANCED_FACE('',(#33,#15),#19,.T.);
#332=ADVANCED_FACE('',(#34,#16),#20,.F.);
#333=ADVANCED_FACE('',(#35),#21,.T.);
#334=ADVANCED_FACE('',(#36),#22,.T.);
#335=ADVANCED_FACE('',(#37),#316,.T.);
#336=ADVANCED_FACE('',(#38),#317,.T.);
#337=ADVANCED_FACE('',(#39),#318,.T.);
#338=ADVANCED_FACE('',(#40),#23,.F.);
#339=ADVANCED_FACE('',(#41),#319,.T.);
#340=ADVANCED_FACE('',(#42),#320,.T.);
#341=ADVANCED_FACE('',(#43),#24,.T.);
#342=ADVANCED_FACE('',(#44),#321,.T.);
#343=ADVANCED_FACE('',(#45),#322,.T.);
#344=ADVANCED_FACE('',(#46),#323,.T.);
#345=CLOSED_SHELL('',(#324,#325,#326,#327,#328,#329,#330,#331,#332,#333,
#334,#335,#336,#337,#338,#339,#340,#341,#342,#343,#344));
#346=DERIVED_UNIT_ELEMENT(#348,1.);
#347=DERIVED_UNIT_ELEMENT(#621,-3.);
#348=(
MASS_UNIT()
NAMED_UNIT(*)
SI_UNIT(.KILO.,.GRAM.)
);
#349=DERIVED_UNIT((#346,#347));
#350=MEASURE_REPRESENTATION_ITEM('density measure',
POSITIVE_RATIO_MEASURE(7850.),#349);
#351=PROPERTY_DEFINITION_REPRESENTATION(#356,#353);
#352=PROPERTY_DEFINITION_REPRESENTATION(#357,#354);
#353=REPRESENTATION('material name',(#355),#618);
#354=REPRESENTATION('density',(#350),#618);
#355=DESCRIPTIVE_REPRESENTATION_ITEM('Steel','Steel');
#356=PROPERTY_DEFINITION('material property','material name',#628);
#357=PROPERTY_DEFINITION('material property','density of part',#628);
#358=AXIS2_PLACEMENT_3D('',#517,#403,#404);
#359=AXIS2_PLACEMENT_3D('',#518,#405,#406);
#360=AXIS2_PLACEMENT_3D('',#521,#407,#408);
#361=AXIS2_PLACEMENT_3D('',#525,#410,#411);
#362=AXIS2_PLACEMENT_3D('',#527,#413,#414);
#363=AXIS2_PLACEMENT_3D('',#530,#415,#416);
#364=AXIS2_PLACEMENT_3D('',#531,#417,#418);
#365=AXIS2_PLACEMENT_3D('',#532,#419,#420);
#366=AXIS2_PLACEMENT_3D('',#533,#421,#422);
#367=AXIS2_PLACEMENT_3D('',#536,#423,#424);
#368=AXIS2_PLACEMENT_3D('',#539,#427,#428);
#369=AXIS2_PLACEMENT_3D('',#545,#432,#433);
#370=AXIS2_PLACEMENT_3D('',#548,#435,#436);
#371=AXIS2_PLACEMENT_3D('',#549,#437,#438);
#372=AXIS2_PLACEMENT_3D('',#553,#441,#442);
#373=AXIS2_PLACEMENT_3D('',#556,#445,#446);
#374=AXIS2_PLACEMENT_3D('',#567,#452,#453);
#375=AXIS2_PLACEMENT_3D('',#568,#454,#455);
#376=AXIS2_PLACEMENT_3D('',#571,#456,#457);
#377=AXIS2_PLACEMENT_3D('',#572,#458,#459);
#378=AXIS2_PLACEMENT_3D('',#573,#460,#461);
#379=AXIS2_PLACEMENT_3D('',#575,#462,#463);
#380=AXIS2_PLACEMENT_3D('',#577,#464,#465);
#381=AXIS2_PLACEMENT_3D('',#579,#466,#467);
#382=AXIS2_PLACEMENT_3D('',#581,#468,#469);
#383=AXIS2_PLACEMENT_3D('',#582,#470,#471);
#384=AXIS2_PLACEMENT_3D('',#583,#472,#473);
#385=AXIS2_PLACEMENT_3D('',#585,#474,#475);
#386=AXIS2_PLACEMENT_3D('',#586,#476,#477);
#387=AXIS2_PLACEMENT_3D('',#588,#479,#480);
#388=AXIS2_PLACEMENT_3D('',#592,#482,#483);
#389=AXIS2_PLACEMENT_3D('',#594,#485,#486);
#390=AXIS2_PLACEMENT_3D('',#595,#487,#488);
#391=AXIS2_PLACEMENT_3D('',#596,#489,#490);
#392=AXIS2_PLACEMENT_3D('',#597,#491,#492);
#393=AXIS2_PLACEMENT_3D('',#601,#494,#495);
#394=AXIS2_PLACEMENT_3D('',#603,#497,#498);
#395=AXIS2_PLACEMENT_3D('',#604,#499,#500);
#396=AXIS2_PLACEMENT_3D('',#605,#501,#502);
#397=AXIS2_PLACEMENT_3D('',#607,#503,#504);
#398=AXIS2_PLACEMENT_3D('',#609,#505,#506);
#399=AXIS2_PLACEMENT_3D('',#610,#507,#508);
#400=AXIS2_PLACEMENT_3D('',#611,#509,#510);
#401=AXIS2_PLACEMENT_3D('',#613,#512,#513);
#402=AXIS2_PLACEMENT_3D('',#615,#515,#516);
#403=DIRECTION('axis',(0.,0.,1.));
#404=DIRECTION('refdir',(1.,0.,0.));
#405=DIRECTION('center_axis',(1.,0.,0.));
#406=DIRECTION('ref_axis',(0.,0.707106781186547,-0.707106781186547));
#407=DIRECTION('center_axis',(-0.707106781186548,0.707106781186547,0.));
#408=DIRECTION('ref_axis',(0.707106781186547,0.707106781186548,-8.177564888978E-17));
#409=DIRECTION('',(-1.,0.,0.));
#410=DIRECTION('center_axis',(1.,0.,0.));
#411=DIRECTION('ref_axis',(0.,0.,-1.));
#412=DIRECTION('',(1.,0.,0.));
#413=DIRECTION('center_axis',(0.,0.,-1.));
#414=DIRECTION('ref_axis',(-1.,0.,0.));
#415=DIRECTION('center_axis',(-1.,0.,0.));
#416=DIRECTION('ref_axis',(0.,0.,-1.));
#417=DIRECTION('center_axis',(0.,0.,-1.));
#418=DIRECTION('ref_axis',(-1.,6.12323399573676E-17,0.));
#419=DIRECTION('center_axis',(0.,0.,1.));
#420=DIRECTION('ref_axis',(-1.,6.12323399573676E-17,0.));
#421=DIRECTION('center_axis',(1.,-4.35381578284375E-17,0.));
#422=DIRECTION('ref_axis',(0.,-0.707106781186547,-0.707106781186547));
#423=DIRECTION('center_axis',(-0.707106781186548,-0.707106781186548,0.));
#424=DIRECTION('ref_axis',(0.707106781186548,-0.707106781186548,-8.17756488897799E-17));
#425=DIRECTION('',(-1.,4.35381578284375E-17,0.));
#426=DIRECTION('',(1.,-4.35381578284375E-17,0.));
#427=DIRECTION('center_axis',(0.,1.,0.));
#428=DIRECTION('ref_axis',(-1.,0.,0.));
#429=DIRECTION('',(0.,0.,1.));
#430=DIRECTION('',(1.,0.,0.));
#431=DIRECTION('',(0.,0.,-1.));
#432=DIRECTION('center_axis',(0.,0.,1.));
#433=DIRECTION('ref_axis',(0.,1.,0.));
#434=DIRECTION('',(0.,0.,1.));
#435=DIRECTION('center_axis',(0.,0.,-1.));
#436=DIRECTION('ref_axis',(0.,1.,0.));
#437=DIRECTION('center_axis',(-4.35381578284375E-17,-1.,0.));
#438=DIRECTION('ref_axis',(1.,-4.35381578284375E-17,0.));
#439=DIRECTION('',(0.,0.,1.));
#440=DIRECTION('',(-1.,4.35381578284375E-17,0.));
#441=DIRECTION('center_axis',(0.,-1.,0.));
#442=DIRECTION('ref_axis',(0.707106781186547,0.,-0.707106781186548));
#443=DIRECTION('',(0.,-1.,0.));
#444=DIRECTION('',(0.,-1.,0.));
#445=DIRECTION('center_axis',(1.,0.,0.));
#446=DIRECTION('ref_axis',(0.,1.,0.));
#447=DIRECTION('',(6.12323399573677E-17,1.,0.));
#448=DIRECTION('',(0.,0.,1.));
#449=DIRECTION('',(0.,1.,0.));
#450=DIRECTION('',(0.,0.,1.));
#451=DIRECTION('',(6.12323399573677E-17,1.,0.));
#452=DIRECTION('center_axis',(-1.,0.,0.));
#453=DIRECTION('ref_axis',(0.,0.,1.));
#454=DIRECTION('center_axis',(0.,0.,1.));
#455=DIRECTION('ref_axis',(1.,0.,0.));
#456=DIRECTION('center_axis',(0.,0.,1.));
#457=DIRECTION('ref_axis',(-0.599999999999997,-0.800000000000002,0.));
#458=DIRECTION('center_axis',(0.,0.,1.));
#459=DIRECTION('ref_axis',(0.599999999999997,0.800000000000002,0.));
#460=DIRECTION('center_axis',(0.,0.,1.));
#461=DIRECTION('ref_axis',(1.,0.,0.));
#462=DIRECTION('center_axis',(0.,0.,1.));
#463=DIRECTION('ref_axis',(1.,0.,0.));
#464=DIRECTION('center_axis',(0.,0.,1.));
#465=DIRECTION('ref_axis',(1.,0.,0.));
#466=DIRECTION('center_axis',(0.,0.,1.));
#467=DIRECTION('ref_axis',(0.74535599249993,0.666666666666667,0.));
#468=DIRECTION('center_axis',(0.,0.,1.));
#469=DIRECTION('ref_axis',(1.,0.,0.));
#470=DIRECTION('center_axis',(0.,0.,1.));
#471=DIRECTION('ref_axis',(1.,0.,0.));
#472=DIRECTION('center_axis',(1.,0.,0.));
#473=DIRECTION('ref_axis',(0.,0.,-1.));
#474=DIRECTION('center_axis',(-1.,0.,0.));
#475=DIRECTION('ref_axis',(0.,0.,1.));
#476=DIRECTION('center_axis',(1.,0.,0.));
#477=DIRECTION('ref_axis',(0.,0.,1.));
#478=DIRECTION('',(-1.,0.,0.));
#479=DIRECTION('center_axis',(0.,0.,-1.));
#480=DIRECTION('ref_axis',(-0.599999999999997,-0.800000000000002,0.));
#481=DIRECTION('',(0.,0.,-1.));
#482=DIRECTION('center_axis',(0.,0.,1.));
#483=DIRECTION('ref_axis',(-0.599999999999997,-0.800000000000002,0.));
#484=DIRECTION('',(0.,0.,-1.));
#485=DIRECTION('center_axis',(0.,0.,-1.));
#486=DIRECTION('ref_axis',(0.599999999999997,0.800000000000002,0.));
#487=DIRECTION('center_axis',(0.,0.,1.));
#488=DIRECTION('ref_axis',(0.599999999999997,0.800000000000002,0.));
#489=DIRECTION('center_axis',(0.,0.,1.));
#490=DIRECTION('ref_axis',(1.,0.,0.));
#491=DIRECTION('center_axis',(0.,0.,1.));
#492=DIRECTION('ref_axis',(1.,0.,0.));
#493=DIRECTION('',(0.,0.,1.));
#494=DIRECTION('center_axis',(0.,0.,1.));
#495=DIRECTION('ref_axis',(1.,0.,0.));
#496=DIRECTION('',(0.,0.,-1.));
#497=DIRECTION('center_axis',(0.,0.,1.));
#498=DIRECTION('ref_axis',(1.,0.,0.));
#499=DIRECTION('center_axis',(0.,0.,1.));
#500=DIRECTION('ref_axis',(1.,0.,0.));
#501=DIRECTION('center_axis',(0.,0.,1.));
#502=DIRECTION('ref_axis',(1.,0.,0.));
#503=DIRECTION('center_axis',(0.,0.,1.));
#504=DIRECTION('ref_axis',(0.74535599249993,0.666666666666667,0.));
#505=DIRECTION('center_axis',(0.,0.,1.));
#506=DIRECTION('ref_axis',(1.,0.,0.));
#507=DIRECTION('center_axis',(0.,0.,1.));
#508=DIRECTION('ref_axis',(1.,0.,0.));
#509=DIRECTION('center_axis',(0.,0.,1.));
#510=DIRECTION('ref_axis',(-1.,-4.736951571734E-16,0.));
#511=DIRECTION('',(0.,0.,1.));
#512=DIRECTION('center_axis',(0.,0.,1.));
#513=DIRECTION('ref_axis',(1.,0.,0.));
#514=DIRECTION('',(0.,0.,1.));
#515=DIRECTION('center_axis',(0.,0.,1.));
#516=DIRECTION('ref_axis',(1.,0.,0.));
#517=CARTESIAN_POINT('',(0.,0.,0.));
#518=CARTESIAN_POINT('Origin',(-1.99900472351544,9.45,-4.25));
#519=CARTESIAN_POINT('',(0.,9.75,-4.25));
#520=CARTESIAN_POINT('',(-0.3,9.45,-4.55));
#521=CARTESIAN_POINT('Origin',(-0.3,9.45,-4.25));
#522=CARTESIAN_POINT('',(-25.5,9.45,-4.55));
#523=CARTESIAN_POINT('',(-1.99900472351544,9.45,-4.55));
#524=CARTESIAN_POINT('',(-25.5,9.75,-4.25));
#525=CARTESIAN_POINT('Origin',(-25.5,9.45,-4.25));
#526=CARTESIAN_POINT('',(-1.99900472351544,9.75,-4.25));
#527=CARTESIAN_POINT('Origin',(-25.5,-3.33066907387547E-15,-4.25));
#528=CARTESIAN_POINT('',(-25.5,-9.45,-4.55));
#529=CARTESIAN_POINT('',(-25.5,-9.75,-4.25));
#530=CARTESIAN_POINT('Origin',(-25.5,-9.45,-4.25));
#531=CARTESIAN_POINT('Origin',(-25.5,-3.33066907387547E-15,-4.25));
#532=CARTESIAN_POINT('Origin',(-25.5,-3.33066907387547E-15,-4.55));
#533=CARTESIAN_POINT('Origin',(-14.7490047235154,-9.45,-4.25));
#534=CARTESIAN_POINT('',(-0.3,-9.45,-4.55));
#535=CARTESIAN_POINT('',(0.,-9.75,-4.25));
#536=CARTESIAN_POINT('Origin',(-0.3,-9.45,-4.25));
#537=CARTESIAN_POINT('',(-14.7490047235154,-9.75,-4.25));
#538=CARTESIAN_POINT('',(-14.7490047235154,-9.45,-4.55));
#539=CARTESIAN_POINT('Origin',(1.01033360929657E-15,9.75,0.));
#540=CARTESIAN_POINT('',(-25.5,9.75,0.800000000000001));
#541=CARTESIAN_POINT('',(-25.5,9.75,0.));
#542=CARTESIAN_POINT('',(1.10218211923262E-15,9.75,0.800000000000001));
#543=CARTESIAN_POINT('',(-7.1776457612825,9.75,0.800000000000001));
#544=CARTESIAN_POINT('',(0.,9.75,0.));
#545=CARTESIAN_POINT('Origin',(-25.5,-3.33066907387547E-15,0.));
#546=CARTESIAN_POINT('',(-25.5,-9.75,0.800000000000001));
#547=CARTESIAN_POINT('',(-25.5,-9.75,0.));
#548=CARTESIAN_POINT('Origin',(-25.5,-3.33066907387547E-15,0.800000000000001));
#549=CARTESIAN_POINT('Origin',(-25.5,-9.75,0.));
#550=CARTESIAN_POINT('',(-4.59242549680258E-17,-9.75,0.800000000000001));
#551=CARTESIAN_POINT('',(0.,-9.75,0.));
#552=CARTESIAN_POINT('',(-19.9276457612825,-9.75,0.800000000000001));
#553=CARTESIAN_POINT('Origin',(-0.3,-5.42207148260855,-4.25));
#554=CARTESIAN_POINT('',(0.,-5.42207148260855,-4.25));
#555=CARTESIAN_POINT('',(-0.3,-5.42207148260855,-4.55));
#556=CARTESIAN_POINT('Origin',(0.,-5.,0.));
#557=CARTESIAN_POINT('',(9.72187218820288E-16,6.81136319138047,0.800000000000001));
#558=CARTESIAN_POINT('',(0.,-8.25,0.800000000000001));
#559=CARTESIAN_POINT('',(0.,6.81136319138047,10.8));
#560=CARTESIAN_POINT('',(0.,6.81136319138047,0.));
#561=CARTESIAN_POINT('',(0.,-6.81136319138047,10.8));
#562=CARTESIAN_POINT('',(0.,-6.81136319138047,10.8));
#563=CARTESIAN_POINT('',(1.38035805804869E-16,-6.81136319138047,0.800000000000001));
#564=CARTESIAN_POINT('',(0.,-6.81136319138047,0.));
#565=CARTESIAN_POINT('',(0.,-8.25,0.800000000000001));
#566=CARTESIAN_POINT('',(0.,-5.57214293612046E-16,1.25));
#567=CARTESIAN_POINT('Origin',(0.,0.,5.8));
#568=CARTESIAN_POINT('Origin',(-3.99800944703089,-5.84414296521711,-4.55));
#569=CARTESIAN_POINT('',(-4.5,4.,-4.55));
#570=CARTESIAN_POINT('',(-4.5,-4.,-4.55));
#571=CARTESIAN_POINT('Origin',(-1.50000000000002,0.,-4.55));
#572=CARTESIAN_POINT('Origin',(-7.49999999999997,-3.81133832274456E-28,
-4.55));
#573=CARTESIAN_POINT('Origin',(-14.355291522565,-3.31386587582195E-15,0.800000000000001));
#574=CARTESIAN_POINT('',(-8.72949016875157,-5.,0.800000000000001));
#575=CARTESIAN_POINT('Origin',(-3.1393202250021,0.,0.800000000000001));
#576=CARTESIAN_POINT('',(-19.9098300562505,-5.,0.800000000000001));
#577=CARTESIAN_POINT('Origin',(-14.3196601125011,-1.66533453693774E-15,
0.800000000000001));
#578=CARTESIAN_POINT('',(-19.9098300562505,4.99999999999999,0.800000000000001));
#579=CARTESIAN_POINT('Origin',(-25.5,-3.12284933782575E-15,0.800000000000001));
#580=CARTESIAN_POINT('',(-8.72949016875158,5.,0.800000000000001));
#581=CARTESIAN_POINT('Origin',(-14.3196601125011,-1.66533453693774E-15,
0.800000000000001));
#582=CARTESIAN_POINT('Origin',(-3.1393202250021,0.,0.800000000000001));
#583=CARTESIAN_POINT('Origin',(12.5,0.,5.8));
#584=CARTESIAN_POINT('',(12.5,-5.57214293612046E-16,1.25));
#585=CARTESIAN_POINT('Origin',(12.5,0.,5.8));
#586=CARTESIAN_POINT('Origin',(0.,0.,5.8));
#587=CARTESIAN_POINT('',(0.,5.57214293612046E-16,1.25));
#588=CARTESIAN_POINT('Origin',(-1.50000000000002,0.,0.));
#589=CARTESIAN_POINT('',(-4.5,4.,-4.65));
#590=CARTESIAN_POINT('',(-4.5,4.,0.));
#591=CARTESIAN_POINT('',(-4.5,-4.,-4.65));
#592=CARTESIAN_POINT('Origin',(-1.50000000000002,0.,-4.65));
#593=CARTESIAN_POINT('',(-4.5,-4.,0.));
#594=CARTESIAN_POINT('Origin',(-7.49999999999997,-3.81133832274456E-28,
0.));
#595=CARTESIAN_POINT('Origin',(-7.49999999999997,-3.81133832274456E-28,
-4.65));
#596=CARTESIAN_POINT('Origin',(-4.5,-8.67361737988801E-18,-4.65));
#597=CARTESIAN_POINT('Origin',(-14.3196601125011,-1.66533453693774E-15,
0.));
#598=CARTESIAN_POINT('',(-8.72949016875157,-5.,10.8));
#599=CARTESIAN_POINT('',(-8.72949016875157,-5.,0.));
#600=CARTESIAN_POINT('',(-19.9098300562505,-5.,10.8));
#601=CARTESIAN_POINT('Origin',(-14.3196601125011,-1.66533453693774E-15,
10.8));
#602=CARTESIAN_POINT('',(-19.9098300562505,-5.,0.));
#603=CARTESIAN_POINT('Origin',(-3.1393202250021,0.,0.));
#604=CARTESIAN_POINT('Origin',(-3.1393202250021,0.,10.8));
#605=CARTESIAN_POINT('Origin',(-14.8734034017973,-1.37960679565506E-15,
10.8));
#606=CARTESIAN_POINT('',(-19.9098300562505,5.,10.8));
#607=CARTESIAN_POINT('Origin',(-25.5,-3.12284933782575E-15,10.8));
#608=CARTESIAN_POINT('',(-8.72949016875158,5.,10.8));
#609=CARTESIAN_POINT('Origin',(-3.1393202250021,0.,10.8));
#610=CARTESIAN_POINT('Origin',(-14.3196601125011,-1.66533453693774E-15,
10.8));
#611=CARTESIAN_POINT('Origin',(-25.5,-3.12284933782575E-15,0.));
#612=CARTESIAN_POINT('',(-19.9098300562505,4.99999999999999,0.));
#613=CARTESIAN_POINT('Origin',(-14.3196601125011,-1.66533453693774E-15,
0.));
#614=CARTESIAN_POINT('',(-8.72949016875158,5.,0.));
#615=CARTESIAN_POINT('Origin',(-3.1393202250021,0.,0.));
#616=UNCERTAINTY_MEASURE_WITH_UNIT(LENGTH_MEASURE(0.01),#620,
'DISTANCE_ACCURACY_VALUE',
'Maximum model space distance between geometric entities at asserted c
onnectivities');
#617=UNCERTAINTY_MEASURE_WITH_UNIT(LENGTH_MEASURE(0.01),#620,
'DISTANCE_ACCURACY_VALUE',
'Maximum model space distance between geometric entities at asserted c
onnectivities');
#618=(
GEOMETRIC_REPRESENTATION_CONTEXT(3)
GLOBAL_UNCERTAINTY_ASSIGNED_CONTEXT((#616))
GLOBAL_UNIT_ASSIGNED_CONTEXT((#620,#622,#623))
REPRESENTATION_CONTEXT('','3D')
);
#619=(
GEOMETRIC_REPRESENTATION_CONTEXT(3)
GLOBAL_UNCERTAINTY_ASSIGNED_CONTEXT((#617))
GLOBAL_UNIT_ASSIGNED_CONTEXT((#620,#622,#623))
REPRESENTATION_CONTEXT('','3D')
);
#620=(
LENGTH_UNIT()
NAMED_UNIT(*)
SI_UNIT(.MILLI.,.METRE.)
);
#621=(
LENGTH_UNIT()
NAMED_UNIT(*)
SI_UNIT($,.METRE.)
);
#622=(
NAMED_UNIT(*)
PLANE_ANGLE_UNIT()
SI_UNIT($,.RADIAN.)
);
#623=(
NAMED_UNIT(*)
SI_UNIT($,.STERADIAN.)
SOLID_ANGLE_UNIT()
);
#624=SHAPE_DEFINITION_REPRESENTATION(#625,#626);
#625=PRODUCT_DEFINITION_SHAPE('',$,#628);
#626=SHAPE_REPRESENTATION('',(#358),#618);
#627=PRODUCT_DEFINITION_CONTEXT('part definition',#632,'design');
#628=PRODUCT_DEFINITION('Product','(Unsaved)',#629,#627);
#629=PRODUCT_DEFINITION_FORMATION('',$,#634);
#630=PRODUCT_RELATED_PRODUCT_CATEGORY('(Unsaved)','(Unsaved)',(#634));
#631=APPLICATION_PROTOCOL_DEFINITION('international standard',
'automotive_design',2009,#632);
#632=APPLICATION_CONTEXT(
'Core Data for Automotive Mechanical Design Process');
#633=PRODUCT_CONTEXT('part definition',#632,'mechanical');
#634=PRODUCT('Product','(Unsaved)',$,(#633));
#635=PRESENTATION_STYLE_ASSIGNMENT((#637));
#636=PRESENTATION_STYLE_ASSIGNMENT((#638));
#637=SURFACE_STYLE_USAGE(.BOTH.,#639);
#638=SURFACE_STYLE_USAGE(.BOTH.,#640);
#639=SURFACE_SIDE_STYLE('',(#641));
#640=SURFACE_SIDE_STYLE('',(#642));
#641=SURFACE_STYLE_FILL_AREA(#643);
#642=SURFACE_STYLE_FILL_AREA(#644);
#643=FILL_AREA_STYLE('Steel - Satin',(#645));
#644=FILL_AREA_STYLE('Opaque(255,255,255)',(#646));
#645=FILL_AREA_STYLE_COLOUR('Steel - Satin',#647);
#646=FILL_AREA_STYLE_COLOUR('Opaque(255,255,255)',#648);
#647=COLOUR_RGB('Steel - Satin',0.627450980392157,0.627450980392157,0.627450980392157);
#648=COLOUR_RGB('Opaque(255,255,255)',1.,1.,1.);
ENDSEC;
END-ISO-10303-21;
